<svg width="112" height="112" viewBox="0 0 112 112" fill="none" xmlns="http://www.w3.org/2000/svg">
<path d="M35.0958 97.9958C37.9948 97.9423 40.3014 95.5489 40.2479 92.65C40.1945 89.7511 37.8011 87.4444 34.9021 87.4979C32.0032 87.5514 29.6966 89.9448 29.75 92.8437C29.8035 95.7426 32.1969 98.0493 35.0958 97.9958Z" fill="#2D3E70"/>
<path d="M89.3625 92.8747C89.4316 89.9761 87.1378 87.5703 84.2391 87.5013C81.3405 87.4322 78.9347 89.726 78.8657 92.6246C78.7966 95.5232 81.0904 97.929 83.989 97.9981C86.8877 98.0672 89.2934 95.7734 89.3625 92.8747Z" fill="#2D3E70"/>
<path d="M101.456 28.9185C101.303 28.3935 100.844 28.0435 100.319 27.9997L29.0718 21.1091C28.4593 21.0435 27.7156 20.6497 27.4312 20.081C26.6 18.5278 26.075 17.6528 24.7625 16.0122C23.0781 13.956 19.9062 14.0216 14.0875 13.9778C12.1187 13.956 10.5219 15.1153 10.5219 17.0622C10.5219 18.9653 12.0312 20.1466 13.9344 20.1466C15.8375 20.1466 18.5937 20.256 19.6219 20.5622C20.65 20.8685 21.4812 22.5528 21.7875 24.0185C21.7875 24.0403 21.7875 24.0622 21.8093 24.0841C21.8531 24.3466 22.2468 26.3153 22.2468 26.3372L30.9968 72.6247C31.5218 75.7966 32.5937 78.4216 34.1687 80.4341C36.0062 82.7966 38.4343 83.9778 41.3656 83.9778H93.1218C94.7843 83.9778 96.2062 82.7091 96.2718 81.0466C96.3593 79.2966 94.9593 77.8528 93.2093 77.8528H41.3218C40.8843 77.8528 40.25 77.8528 39.5062 77.2403C38.7406 76.5841 37.6906 75.0747 36.9906 71.5528L36.05 66.3685C36.05 66.3028 36.0718 66.2591 36.1375 66.2372L96.8843 55.956C97.4531 55.8685 97.8906 55.4091 97.9562 54.8185L101.456 29.4872C101.5 29.3122 101.5 29.1153 101.456 28.9185Z" fill="#2D3E70"/>
</svg>
