<svg width="42" height="42" viewBox="0 0 42 42" fill="none" xmlns="http://www.w3.org/2000/svg">
<path d="M33.8124 9.73383C33.5466 9.59647 33.2879 9.44589 33.0372 9.28266C32.3082 8.80069 31.6397 8.23278 31.0463 7.59117C29.5616 5.8923 29.007 4.16883 28.8028 2.96215H28.811C28.6403 1.96055 28.7109 1.3125 28.7216 1.3125H21.9589V27.4624C21.9589 27.8135 21.9589 28.1605 21.9441 28.5034C21.9441 28.5461 21.94 28.5854 21.9376 28.6314C21.9376 28.6502 21.9376 28.6699 21.9335 28.6896C21.9335 28.6945 21.9335 28.6995 21.9335 28.7044C21.8622 29.6426 21.5614 30.549 21.0576 31.3437C20.5538 32.1385 19.8625 32.7972 19.0443 33.262C18.1917 33.7471 17.2273 34.0016 16.2462 34.0003C13.0954 34.0003 10.5418 31.4311 10.5418 28.2581C10.5418 25.0852 13.0954 22.5159 16.2462 22.5159C16.8427 22.5154 17.4354 22.6092 18.0025 22.794L18.0107 15.9083C16.2892 15.6859 14.5403 15.8228 12.8742 16.3101C11.2082 16.7975 9.6613 17.6249 8.33105 18.74C7.16544 19.7528 6.1855 20.9612 5.43535 22.3109C5.14988 22.803 4.07281 24.7808 3.94238 27.9907C3.86035 29.8126 4.40749 31.7002 4.66835 32.4803V32.4967C4.83242 32.9561 5.46816 34.5237 6.50421 35.8452C7.33965 36.9053 8.32669 37.8365 9.43355 38.6088V38.5924L9.44995 38.6088C12.7238 40.8335 16.3537 40.6875 16.3537 40.6875C16.9821 40.6621 19.087 40.6875 21.4774 39.5546C24.1286 38.2987 25.638 36.4276 25.638 36.4276C26.6023 35.3096 27.369 34.0355 27.9053 32.6599C28.5173 31.0513 28.7216 29.1219 28.7216 28.3508V14.4777C28.8036 14.5269 29.8962 15.2496 29.8962 15.2496C29.8962 15.2496 31.4704 16.2586 33.9264 16.9157C35.6885 17.3832 38.0625 17.4817 38.0625 17.4817V10.7682C37.2307 10.8585 35.5416 10.596 33.8124 9.73383Z" fill="#757575"/>
</svg>
